<mxfile host="app.diagrams.net" modified="2024-03-21T00:48:45.589Z" agent="Mozilla/5.0 (Windows NT 10.0; Win64; x64) AppleWebKit/537.36 (KHTML, like Gecko) Chrome/120.0.0.0 Safari/537.36 OPR/106.0.0.0" etag="rbJMgJOIF1omYrW2ZOqe" version="24.0.6" type="device">
  <diagram name="PÃ¡gina-1" id="rNHHKAxi5ETn-mj8fAxV">
    <mxGraphModel dx="1060" dy="595" grid="1" gridSize="10" guides="1" tooltips="1" connect="1" arrows="1" fold="1" page="1" pageScale="1" pageWidth="827" pageHeight="1169" math="0" shadow="0">
      <root>
        <mxCell id="0" />
        <mxCell id="1" parent="0" />
        <mxCell id="IF04rUtM6k92pybovesZ-1" value="Usuario" style="swimlane;childLayout=stackLayout;horizontal=1;startSize=50;horizontalStack=0;rounded=1;fontSize=14;fontStyle=0;strokeWidth=2;resizeParent=0;resizeLast=1;shadow=0;dashed=0;align=center;arcSize=4;whiteSpace=wrap;html=1;" vertex="1" parent="1">
          <mxGeometry x="110" y="80" width="160" height="150" as="geometry" />
        </mxCell>
        <mxCell id="IF04rUtM6k92pybovesZ-2" value="+Id&lt;br&gt;+Nombre&lt;div&gt;+Apellido&lt;/div&gt;&lt;div&gt;+Email&lt;/div&gt;&lt;div&gt;+Password&lt;/div&gt;&lt;div&gt;+Fecha_creacion&lt;/div&gt;" style="align=left;strokeColor=none;fillColor=none;spacingLeft=4;fontSize=12;verticalAlign=top;resizable=0;rotatable=0;part=1;html=1;" vertex="1" parent="IF04rUtM6k92pybovesZ-1">
          <mxGeometry y="50" width="160" height="100" as="geometry" />
        </mxCell>
        <mxCell id="IF04rUtM6k92pybovesZ-15" style="edgeStyle=orthogonalEdgeStyle;rounded=0;orthogonalLoop=1;jettySize=auto;html=1;exitX=0.5;exitY=1;exitDx=0;exitDy=0;" edge="1" parent="IF04rUtM6k92pybovesZ-1" source="IF04rUtM6k92pybovesZ-2" target="IF04rUtM6k92pybovesZ-2">
          <mxGeometry relative="1" as="geometry" />
        </mxCell>
        <mxCell id="IF04rUtM6k92pybovesZ-24" value="" style="edgeStyle=orthogonalEdgeStyle;rounded=0;orthogonalLoop=1;jettySize=auto;html=1;entryX=0.5;entryY=1;entryDx=0;entryDy=0;" edge="1" parent="1" source="IF04rUtM6k92pybovesZ-3" target="IF04rUtM6k92pybovesZ-2">
          <mxGeometry relative="1" as="geometry" />
        </mxCell>
        <mxCell id="IF04rUtM6k92pybovesZ-3" value="Alquiler" style="swimlane;childLayout=stackLayout;horizontal=1;startSize=50;horizontalStack=0;rounded=1;fontSize=14;fontStyle=0;strokeWidth=2;resizeParent=0;resizeLast=1;shadow=0;dashed=0;align=center;arcSize=4;whiteSpace=wrap;html=1;" vertex="1" parent="1">
          <mxGeometry x="310" y="280" width="160" height="120" as="geometry" />
        </mxCell>
        <mxCell id="IF04rUtM6k92pybovesZ-4" value="+Id&lt;br&gt;+Fecha_inicio&lt;div&gt;+Fecha_finalizacion&lt;br&gt;&lt;div&gt;&lt;br&gt;&lt;/div&gt;&lt;/div&gt;" style="align=left;strokeColor=none;fillColor=none;spacingLeft=4;fontSize=12;verticalAlign=top;resizable=0;rotatable=0;part=1;html=1;" vertex="1" parent="IF04rUtM6k92pybovesZ-3">
          <mxGeometry y="50" width="160" height="70" as="geometry" />
        </mxCell>
        <mxCell id="IF04rUtM6k92pybovesZ-5" value="Objeto" style="swimlane;childLayout=stackLayout;horizontal=1;startSize=50;horizontalStack=0;rounded=1;fontSize=14;fontStyle=0;strokeWidth=2;resizeParent=0;resizeLast=1;shadow=0;dashed=0;align=center;arcSize=4;whiteSpace=wrap;html=1;" vertex="1" parent="1">
          <mxGeometry x="110" y="450" width="160" height="150" as="geometry" />
        </mxCell>
        <mxCell id="IF04rUtM6k92pybovesZ-6" value="+Id&lt;br&gt;+Nombre&lt;div&gt;+Funcion&lt;/div&gt;&lt;div&gt;+Descripcion&lt;/div&gt;&lt;div&gt;+Imagen&lt;/div&gt;&lt;div&gt;+Costo&lt;/div&gt;" style="align=left;strokeColor=none;fillColor=none;spacingLeft=4;fontSize=12;verticalAlign=top;resizable=0;rotatable=0;part=1;html=1;" vertex="1" parent="IF04rUtM6k92pybovesZ-5">
          <mxGeometry y="50" width="160" height="100" as="geometry" />
        </mxCell>
        <mxCell id="IF04rUtM6k92pybovesZ-7" value="Categoria" style="swimlane;childLayout=stackLayout;horizontal=1;startSize=50;horizontalStack=0;rounded=1;fontSize=14;fontStyle=0;strokeWidth=2;resizeParent=0;resizeLast=1;shadow=0;dashed=0;align=center;arcSize=4;whiteSpace=wrap;html=1;" vertex="1" parent="1">
          <mxGeometry x="380" y="475" width="160" height="100" as="geometry" />
        </mxCell>
        <mxCell id="IF04rUtM6k92pybovesZ-8" value="+Id&lt;div&gt;+Nombre&lt;/div&gt;" style="align=left;strokeColor=none;fillColor=none;spacingLeft=4;fontSize=12;verticalAlign=top;resizable=0;rotatable=0;part=1;html=1;" vertex="1" parent="IF04rUtM6k92pybovesZ-7">
          <mxGeometry y="50" width="160" height="50" as="geometry" />
        </mxCell>
        <mxCell id="IF04rUtM6k92pybovesZ-27" style="edgeStyle=orthogonalEdgeStyle;rounded=0;orthogonalLoop=1;jettySize=auto;html=1;exitX=0.5;exitY=1;exitDx=0;exitDy=0;" edge="1" parent="IF04rUtM6k92pybovesZ-7" source="IF04rUtM6k92pybovesZ-8" target="IF04rUtM6k92pybovesZ-8">
          <mxGeometry relative="1" as="geometry" />
        </mxCell>
        <mxCell id="IF04rUtM6k92pybovesZ-9" value="Rol" style="swimlane;childLayout=stackLayout;horizontal=1;startSize=50;horizontalStack=0;rounded=1;fontSize=14;fontStyle=0;strokeWidth=2;resizeParent=0;resizeLast=1;shadow=0;dashed=0;align=center;arcSize=4;whiteSpace=wrap;html=1;" vertex="1" parent="1">
          <mxGeometry x="370" y="106.5" width="160" height="97" as="geometry" />
        </mxCell>
        <mxCell id="IF04rUtM6k92pybovesZ-10" value="+Id&lt;br&gt;+Nombre&lt;div&gt;&lt;br&gt;&lt;/div&gt;" style="align=left;strokeColor=none;fillColor=none;spacingLeft=4;fontSize=12;verticalAlign=top;resizable=0;rotatable=0;part=1;html=1;" vertex="1" parent="IF04rUtM6k92pybovesZ-9">
          <mxGeometry y="50" width="160" height="47" as="geometry" />
        </mxCell>
        <mxCell id="IF04rUtM6k92pybovesZ-23" style="edgeStyle=orthogonalEdgeStyle;rounded=0;orthogonalLoop=1;jettySize=auto;html=1;exitX=0.5;exitY=1;exitDx=0;exitDy=0;" edge="1" parent="IF04rUtM6k92pybovesZ-9" source="IF04rUtM6k92pybovesZ-10" target="IF04rUtM6k92pybovesZ-10">
          <mxGeometry relative="1" as="geometry" />
        </mxCell>
        <mxCell id="IF04rUtM6k92pybovesZ-21" value="" style="edgeStyle=orthogonalEdgeStyle;rounded=0;orthogonalLoop=1;jettySize=auto;html=1;entryX=0.419;entryY=-0.017;entryDx=0;entryDy=0;entryPerimeter=0;" edge="1" parent="1" source="IF04rUtM6k92pybovesZ-4" target="IF04rUtM6k92pybovesZ-5">
          <mxGeometry relative="1" as="geometry" />
        </mxCell>
        <mxCell id="IF04rUtM6k92pybovesZ-22" value="*" style="text;html=1;align=center;verticalAlign=middle;resizable=0;points=[];autosize=1;strokeColor=none;fillColor=none;" vertex="1" parent="1">
          <mxGeometry x="145" y="418" width="30" height="30" as="geometry" />
        </mxCell>
        <mxCell id="IF04rUtM6k92pybovesZ-25" value="" style="edgeStyle=orthogonalEdgeStyle;rounded=0;orthogonalLoop=1;jettySize=auto;html=1;" edge="1" parent="1" source="IF04rUtM6k92pybovesZ-2" target="IF04rUtM6k92pybovesZ-10">
          <mxGeometry relative="1" as="geometry" />
        </mxCell>
        <mxCell id="IF04rUtM6k92pybovesZ-26" value="" style="edgeStyle=orthogonalEdgeStyle;rounded=0;orthogonalLoop=1;jettySize=auto;html=1;" edge="1" parent="1" source="IF04rUtM6k92pybovesZ-6" target="IF04rUtM6k92pybovesZ-8">
          <mxGeometry relative="1" as="geometry" />
        </mxCell>
      </root>
    </mxGraphModel>
  </diagram>
</mxfile>
